<svg xmlns="http://www.w3.org/2000/svg" width="20" height="20" viewBox="0 0 20 20" version="1.1">
	<path d="M 6.180 5.250 C 6.356 6.488, 7.175 7.500, 8 7.500 C 8.825 7.500, 9.644 6.488, 9.820 5.250 C 10.065 3.518, 9.646 3, 8 3 C 6.354 3, 5.935 3.518, 6.180 5.250 M 12.336 5.567 C 11.448 7.882, 13.413 9.412, 14.928 7.586 C 16.210 6.043, 15.629 4, 13.910 4 C 13.375 4, 12.667 4.705, 12.336 5.567 M 2 7.917 C 2 9.145, 2.646 10, 3.573 10 C 4.505 10, 5.015 9.320, 4.823 8.333 C 4.337 5.824, 2 5.480, 2 7.917 M 6.039 11.189 C 2.578 14.904, 3.360 16.748, 8.574 17.162 C 11.090 17.363, 13.613 17.239, 14.181 16.888 C 16.355 15.545, 12.444 9, 9.468 9 C 8.703 9, 7.160 9.985, 6.039 11.189 M 15.500 10 C 14.419 11.749, 16.022 13.227, 17.589 11.926 C 18.365 11.282, 19 10.360, 19 9.878 C 19 8.672, 16.262 8.768, 15.500 10" stroke="none" fill="#ff0000" fill-rule="evenodd"/>
</svg>